# xmcd CD database file
#
# Track frame offsets:
#	150
#	19382
#	39675
#	48457
#	71447
#	86477
#	117765
#	131960
#	158410
#	188357
#	215017
#	231892
#	243907
#	254862
#
# Disc length: 3550 seconds
#
# Revision: 0
# Processed by: cddbd v1.5.2PL0 Copyright (c) Steve Scherf et al.
# Submitted via: CDex 1.51
#
DISCID=c30ddc0e
DTITLE=Al Jarreau - Original Hits
DYEAR=2001
DGENRE=Jazz
TTITLE0=Sophisticated Lady
TTITLE1=One Note Samba
TTITLE2=Ain't No Sunshine
TTITLE3=My Favourite Things
TTITLE4=Let's Saty Together
TTITLE5=Come Rain Or Come Shine
TTITLE6=Lovve And Happiness
TTITLE7=Stockholm Sweetning
TTITLE8=This Masquerade Is Over
TTITLE9=A Sleepin' Be
TTITLE10=Joey
TTITLE11=Living For You
TTITLE12=Call Me
TTITLE13=Tired Of Being Alone
EXTD=YEAR: 2001
EXTT0=
EXTT1=
EXTT2=
EXTT3=
EXTT4=
EXTT5=
EXTT6=
EXTT7=
EXTT8=
EXTT9=
EXTT10=
EXTT11=
EXTT12=
EXTT13=
PLAYORDER=
